<?xml version="1.0" encoding="UTF-8" standalone="no"?>
<!-- Created with Inkscape (http://www.inkscape.org/) -->

<svg
   xmlns:dc="http://purl.org/dc/elements/1.1/"
   xmlns:cc="http://creativecommons.org/ns#"
   xmlns:rdf="http://www.w3.org/1999/02/22-rdf-syntax-ns#"
   xmlns:svg="http://www.w3.org/2000/svg"
   xmlns="http://www.w3.org/2000/svg"
   xmlns:sodipodi="http://sodipodi.sourceforge.net/DTD/sodipodi-0.dtd"
   xmlns:inkscape="http://www.inkscape.org/namespaces/inkscape"
   width="96"
   height="96"
   viewBox="0 0 96 96"
   id="svg2"
   version="1.1"
   inkscape:version="0.91 r13725"
   sodipodi:docname="alert.svg">
  <defs
     id="defs4" />
  <sodipodi:namedview
     id="base"
     pagecolor="#ffffff"
     bordercolor="#666666"
     borderopacity="1.0"
     inkscape:pageopacity="0.0"
     inkscape:pageshadow="2"
     inkscape:zoom="3.959798"
     inkscape:cx="-13.944849"
     inkscape:cy="62.924026"
     inkscape:document-units="px"
     inkscape:current-layer="flowRoot4168"
     showgrid="false"
     units="px"
     inkscape:window-width="1586"
     inkscape:window-height="1219"
     inkscape:window-x="1551"
     inkscape:window-y="549"
     inkscape:window-maximized="0" />
  <metadata
     id="metadata7">
    <rdf:RDF>
      <cc:Work
         rdf:about="">
        <dc:format>image/svg+xml</dc:format>
        <dc:type
           rdf:resource="http://purl.org/dc/dcmitype/StillImage" />
        <dc:title></dc:title>
      </cc:Work>
    </rdf:RDF>
  </metadata>
  <g
     inkscape:label="Layer 1"
     inkscape:groupmode="layer"
     id="layer1"
     transform="translate(0,-956.36216)">
    <g
       transform="matrix(1.3684316,0,0,1.3349316,-15.114313,961.0606)"
       style="font-style:normal;font-variant:normal;font-weight:normal;font-stretch:normal;font-size:70px;line-height:111.00000143%;font-family:'Abyssinica SIL';-inkscape-font-specification:'Abyssinica SIL';letter-spacing:0px;word-spacing:0px;fill:#feba0e;fill-opacity:1;stroke:#000000;stroke-width:1px;stroke-linecap:butt;stroke-linejoin:miter;stroke-opacity:1"
       id="flowRoot4168">
      <path
         d="m 29.512695,23.044258 q 0,1.606446 -0.170898,3.110352 -0.170899,1.469727 -0.444336,3.31543 l -2.392578,17.363281 -3.31543,0 -2.22168,-16.030273 q -0.170898,-1.19629 -0.307617,-2.22168 -0.136719,-1.025391 -0.273437,-1.948242 -0.136719,-0.922852 -0.205078,-1.811524 -0.06836,-0.888672 -0.06836,-1.845703 0,-4.067383 1.230469,-5.947266 1.264648,-1.879882 3.554687,-1.879882 1.12793,0 1.982422,0.410156 0.854493,0.375976 1.435547,1.298828 0.615235,0.922852 0.888672,2.460938 0.307617,1.503906 0.307617,3.725585 z m 0.751953,32.402344 q 0,1.12793 -0.410156,2.119141 -0.410156,0.991211 -1.12793,1.708984 -0.717773,0.717774 -1.708984,1.16211 -0.957031,0.410156 -2.050781,0.410156 -1.12793,0 -2.119141,-0.410156 -0.991211,-0.444336 -1.708984,-1.16211 -0.717774,-0.717773 -1.16211,-1.708984 -0.410156,-0.991211 -0.410156,-2.119141 0,-1.09375 0.410156,-2.050781 0.444336,-0.991211 1.16211,-1.708984 0.717773,-0.717774 1.708984,-1.12793 0.991211,-0.410156 2.119141,-0.410156 1.09375,0 2.050781,0.410156 0.991211,0.410156 1.708984,1.12793 0.717774,0.717773 1.12793,1.708984 0.410156,0.957031 0.410156,2.050781 z"
         id="path4177"
         inkscape:connector-curvature="0"
         style="fill:#fe830e;fill-opacity:1;stroke-width:1.51822557;stroke-miterlimit:4;stroke-dasharray:none" />
    </g>
  </g>
</svg>
